<svg width="148" height="138" viewBox="0 0 848 438" fill="none" xmlns="http://www.w3.org/2000/svg">
<path fill-rule="evenodd" clip-rule="evenodd" d="M297.14 3.89472C290.916 1.32555 284.243 0.00200966 277.504 0C270.765 0.00200966 264.093 1.32555 257.868 3.89472C251.644 6.46389 245.989 10.2282 241.228 14.9729C236.468 19.7175 232.693 25.3493 230.122 31.5459C227.55 37.7425 226.232 44.3825 226.242 51.0863C226.242 64.6109 231.643 77.5815 241.257 87.1448C250.87 96.708 263.909 102.08 277.504 102.08C291.1 102.08 304.139 96.708 313.752 87.1448C323.365 77.5815 328.766 64.6109 328.766 51.0863C328.776 44.3825 327.457 37.7425 324.886 31.5459C322.314 25.3493 318.541 19.7175 313.78 14.9729C309.019 10.2282 303.365 6.46389 297.14 3.89472ZM328.766 437.94V119.099H226.242V437.94H328.766ZM73.7687 269.934V119.345H178.004V284.666C178.004 401.401 95.0415 437.955 23.9108 437.955C15.9192 437.963 7.9345 437.492 0 436.543L9.40982 337.087C12.4759 337.52 15.5689 337.735 18.6656 337.731C18.8987 337.731 19.1758 337.734 19.4937 337.738C28.8722 337.846 73.7687 338.359 73.7687 269.934ZM774.308 437.954V287.412C774.308 218.986 819.205 219.499 828.584 219.606C828.901 219.61 829.178 219.613 829.411 219.613C832.482 219.613 835.549 219.83 838.59 220.258L848 120.801C840.065 119.854 832.081 119.382 824.089 119.39C752.958 119.39 669.996 155.943 669.996 272.68V438L774.308 437.954ZM546.57 249.875C564.449 255.585 588.144 266.188 604.141 286.276C614.662 299.489 621.835 316.783 621.773 339.526C621.773 401.431 568.444 437.985 496.727 437.985C433.587 437.985 385.72 409.933 375.97 350.329L456.434 327.771C456.578 328.135 456.725 328.511 456.877 328.896C461.142 339.765 468.691 359 495 359C509.223 359 521.07 352.508 521.07 339.542C521.07 333.065 517.522 324.81 501.51 320.083L493.874 317.274L456.495 303.586C429.052 294.056 410.017 279.907 398.307 262.705C388.219 247.988 383.591 231.015 383.591 212.785C383.591 153.826 437.521 119.635 499.751 119.635C559.096 119.635 602.444 152.583 613.551 202.319L534.429 224.509H534.121C527.611 200.922 512.786 197.378 503.901 197.378C487.903 197.378 482.567 207.813 482.567 214.473C482.567 221.133 486.237 228.836 501.525 233.67C502.466 233.962 503.469 234.254 504.503 234.529L546.57 249.875Z" fill="#2353F5"/>
</svg>
